<svg width="24" height="25" viewBox="0 0 24 25" fill="none" xmlns="http://www.w3.org/2000/svg">
<g id="Eye">
<path id="Eye_2" fill-rule="evenodd" clip-rule="evenodd" d="M3.24782 13.3179C3.05675 12.7862 3.05675 12.2138 3.24782 11.6821C3.91159 9.83484 6.098 5.5 12 5.5C17.902 5.5 20.0884 9.83485 20.7522 11.6821C20.9433 12.2138 20.9433 12.7862 20.7522 13.3179C20.0884 15.1652 17.902 19.5 12 19.5C6.098 19.5 3.91159 15.1652 3.24782 13.3179ZM15 12.5C15 14.1569 13.6569 15.5 12 15.5C10.3431 15.5 9 14.1569 9 12.5C9 10.8431 10.3431 9.5 12 9.5C13.6569 9.5 15 10.8431 15 12.5Z" stroke="#101113" stroke-width="1.5" stroke-linecap="round" stroke-linejoin="round"/>
</g>
</svg>
