<svg width="44" height="45" viewBox="0 0 44 45" fill="none" xmlns="http://www.w3.org/2000/svg">
<g id="mdi:hours-24">
<path id="Vector" d="M23.8333 4.25832V7.96166C31.075 8.85999 36.6667 15.02 36.6667 22.5C36.6667 28.385 33.1467 33.5 28.0133 35.8467L23.8333 31.6667V40.8333H33L30.7633 38.5967C36.5017 35.4617 40.3333 29.3933 40.3333 22.5C40.3333 13.0033 33.0917 5.17499 23.8333 4.25832ZM20.1667 4.16666C16.5917 4.53332 13.2 5.92666 10.4133 8.21832L13.0167 10.8217C15.0977 9.21745 17.563 8.18707 20.1667 7.83332V4.16666ZM7.69999 10.9133C5.42666 13.7 4.03332 17.0917 3.66666 20.6667H7.33332C7.68166 18.0633 8.70832 15.5883 10.3217 13.5167L7.69999 10.9133ZM11 15.1667V18.8333H16.5V20.6667H14.6667C12.65 20.6667 11 22.3167 11 24.3333V29.8333H20.1667V26.1667H14.6667V24.3333H16.5C18.535 24.3333 20.1667 22.7017 20.1667 20.6667V18.8333C20.1667 17.8609 19.7803 16.9282 19.0927 16.2406C18.4051 15.553 17.4725 15.1667 16.5 15.1667H11ZM22 15.1667V24.3333H27.5V29.8333H31.1667V24.3333H33V20.6667H31.1667V15.1667H27.5V20.6667H25.6667V15.1667H22ZM3.66666 24.3333C4.03332 27.9083 5.44499 31.3 7.73666 34.0867L10.34 31.4833C8.73034 29.4036 7.6937 26.9384 7.33332 24.3333H3.66666ZM13.035 34.1783L10.4133 36.7817C13.1989 39.056 16.5896 40.4645 20.1667 40.8333V37.1667C17.5664 36.821 15.105 35.7896 13.035 34.1783Z" fill="black"/>
</g>
</svg>
