<svg width="44" height="45" viewBox="0 0 44 45" fill="none" xmlns="http://www.w3.org/2000/svg">
<g id="Bus">
<path id="Bus_2" d="M38.5 22.5L36.913 28.848C36.7518 29.4928 36.4184 30.0815 35.9485 30.5515L35.9073 30.5927C35.2196 31.2803 34.287 31.6667 33.3146 31.6667H32.9083M38.5 22.5L35.1128 14.0321C34.9284 13.5711 34.6523 13.1523 34.3012 12.8011L32.2406 10.7406C31.553 10.053 30.6203 9.66666 29.6479 9.66666H27.5M38.5 22.5H31.1667C29.1416 22.5 27.5 20.8584 27.5 18.8333V9.66666M27.5 9.66666H9.16667C7.14162 9.66666 5.5 11.3083 5.5 13.3333V28C5.5 30.025 7.14162 31.6667 9.16667 31.6667H9.25835M18.2416 31.6667C17.817 29.5746 15.9674 28 13.75 28C11.5326 28 9.68301 29.5746 9.25835 31.6667M18.2416 31.6667C18.3018 31.9628 18.3333 32.2694 18.3333 32.5833C18.3333 35.1146 16.2813 37.1667 13.75 37.1667C11.2187 37.1667 9.16667 35.1146 9.16667 32.5833C9.16667 32.2694 9.19823 31.9628 9.25835 31.6667M18.2416 31.6667H23.925M32.9083 31.6667C32.4837 29.5746 30.634 28 28.4167 28C26.1993 28 24.3497 29.5746 23.925 31.6667M32.9083 31.6667C32.9684 31.9628 33 32.2694 33 32.5833C33 35.1146 30.948 37.1667 28.4167 37.1667C25.8854 37.1667 23.8333 35.1146 23.8333 32.5833C23.8333 32.2694 23.8649 31.9628 23.925 31.6667" stroke="#09090B" stroke-width="2.75" stroke-linejoin="round"/>
</g>
</svg>
