<svg width="40" height="41" viewBox="0 0 40 41" fill="none" xmlns="http://www.w3.org/2000/svg">
<g id="Group">
<path id="Vector" d="M20 9.50003V31.5M25.5 15.9167C25.5 13.3867 23.0378 11.3334 20 11.3334C16.9622 11.3334 14.5 13.3867 14.5 15.9167C14.5 18.4467 16.9622 20.5 20 20.5C23.0378 20.5 25.5 22.5534 25.5 25.0834C25.5 27.6134 23.0378 29.6667 20 29.6667C16.9622 29.6667 14.5 27.6134 14.5 25.0834" stroke="black" stroke-width="2.75" stroke-linecap="round"/>
<path id="Vector_2" d="M10.8333 4.61968C13.6191 3.008 16.7816 2.16172 20 2.16668C30.1255 2.16668 38.3333 10.3745 38.3333 20.5C38.3333 30.6255 30.1255 38.8333 20 38.8333C9.87451 38.8333 1.66667 30.6255 1.66667 20.5C1.66667 17.1615 2.55951 14.0283 4.11967 11.3333" stroke="black" stroke-width="2.75" stroke-linecap="round"/>
</g>
</svg>
