<svg width="44" height="37" viewBox="0 0 44 37" fill="none" xmlns="http://www.w3.org/2000/svg">
<g id="Group">
<path id="Vector" d="M1.83334 24V13C1.83334 10.0826 2.99226 7.28473 5.05516 5.22183C7.11806 3.15893 9.91596 2 12.8333 2H31.1667C34.0841 2 36.8819 3.15893 38.9448 5.22183C41.0077 7.28473 42.1667 10.0826 42.1667 13V24C42.1667 26.9174 41.0077 29.7153 38.9448 31.7782C36.8819 33.8411 34.0841 35 31.1667 35H12.8333C9.91596 35 7.11806 33.8411 5.05516 31.7782C2.99226 29.7153 1.83334 26.9174 1.83334 24Z" stroke="black" stroke-width="2.75"/>
<path id="Vector_2" d="M12.8334 13C14.292 13 15.691 13.5795 16.7224 14.6109C17.7539 15.6424 18.3334 17.0413 18.3334 18.5C18.3334 19.9587 17.7539 21.3576 16.7224 22.3891C15.691 23.4205 14.292 24 12.8334 24C11.3747 24 9.97572 23.4205 8.94427 22.3891C7.91282 21.3576 7.33336 19.9587 7.33336 18.5C7.33336 17.0413 7.91282 15.6424 8.94427 14.6109C9.97572 13.5795 11.3747 13 12.8334 13Z" stroke="black" stroke-width="2.75"/>
<path id="Vector_3" d="M22 24V13H27.5M31.1667 24V13H36.6667M22 18.5H26.7154M31.1667 18.5H35.882" stroke="black" stroke-width="2.75" stroke-linecap="round" stroke-linejoin="round"/>
</g>
</svg>
