<svg width="20" height="20" viewBox="0 0 20 20" fill="none" xmlns="http://www.w3.org/2000/svg">
<g id="Bill">
<path id="Bill_2" d="M15.8333 4.16663H17.5C18.4205 4.16663 19.1667 4.91282 19.1667 5.83329V7.49996M15.8333 4.16663H4.16666M15.8333 4.16663C15.8333 6.00757 17.3257 7.49996 19.1667 7.49996M19.1667 7.49996V12.5M19.1667 12.5V14.1666C19.1667 15.0871 18.4205 15.8333 17.5 15.8333H15.8333M19.1667 12.5C17.3257 12.5 15.8333 13.9923 15.8333 15.8333M15.8333 15.8333H4.16666M0.833328 12.5V14.1666C0.833328 15.0871 1.57952 15.8333 2.5 15.8333H4.16666M0.833328 12.5V7.49996M0.833328 12.5C2.67428 12.5 4.16666 13.9923 4.16666 15.8333M0.833328 7.49996V5.83329C0.833328 4.91282 1.57952 4.16663 2.49999 4.16663H4.16666M0.833328 7.49996C2.67428 7.49996 4.16666 6.00757 4.16666 4.16663M12.5 9.99996C12.5 11.8409 11.3807 13.3333 9.99999 13.3333C8.61928 13.3333 7.49999 11.8409 7.49999 9.99996C7.49999 8.15901 8.61928 6.66663 9.99999 6.66663C11.3807 6.66663 12.5 8.15901 12.5 9.99996Z" stroke="#494A50" stroke-width="1.25" stroke-linecap="round" stroke-linejoin="round"/>
</g>
</svg>
